<svg width="401.3" height="442" xmlns="http://www.w3.org/2000/svg">
 <style type="text/css">.st0{fill:#575759;}
	.st1{fill:#6D6D6D;}
	.st2{fill:#EBEBEB;}
	.st3{fill:#FFFFFF;}</style>

 <g>
  <title>background</title>
  <rect x="-1" y="-1" width="403.3" height="444" id="canvas_background" fill="none"/>
 </g>
 <g>
  <title>Layer 1</title>
  <g id="g3013">
   <polygon id="polygon2989" class="st0" points="200.449951171875,426.6999969482422 52.24998474121094,385.59996032714844 19.249975204467773,15.29998779296875 382.0500183105469,15.29998779296875 348.9499206542969,385.4999542236328 "/>
   <polygon id="polygon2991" class="st1" points="320.6499938964844,361.90000915527344 348.9499206542969,45.5999755859375 200.64996337890625,45.5999755859375 200.64996337890625,395.1999969482422 "/>
   <polygon id="polygon2993" class="st2" points="94.94998168945312,182.89999389648438 99.04997253417969,228.3000030517578 200.64996337890625,228.3000030517578 200.64996337890625,182.89999389648438 "/>
   <polygon id="polygon2995" class="st2" points="86.74996948242188,90.99998474121094 90.94998168945312,136.3999786376953 200.64996337890625,136.3999786376953 200.64996337890625,90.99998474121094 200.449951171875,90.99998474121094 "/>
   <polygon id="polygon2997" class="st2" points="200.64996337890625,300.90000915527344 200.449951171875,300.90000915527344 149.84996032714844,287.1999969482422 146.64996337890625,250.99998474121094 122.04997253417969,250.99998474121094 101.04997253417969,250.99998474121094 107.449951171875,322.3000030517578 200.449951171875,348.1999969482422 200.64996337890625,348.09999084472656 "/>
   <polygon id="polygon3005" class="st3" points="306.0499572753906,182.89999389648438 314.2499694824219,90.99998474121094 200.449951171875,90.99998474121094 200.449951171875,136.3999786376953 264.449951171875,136.3999786376953 260.3499755859375,182.89999389648438 200.449951171875,182.89999389648438 200.449951171875,228.3000030517578 256.449951171875,228.3000030517578 251.14996337890625,287.1999969482422 200.449951171875,300.90000915527344 200.449951171875,348.09999084472656 293.5499572753906,322.3000030517578 294.2499694824219,314.6999969482422 304.949951171875,195.0999755859375 "/>
  </g>
 </g>
</svg>