<svg width="380" height="340" xmlns="http://www.w3.org/2000/svg">
 <style type="text/css">.st0{fill:#575759;}
	.st1{fill:#777777;}
	.st2{fill:#999999;}
	.st3{fill:#AAAAAA;}</style>

 <g>
  <title>background</title>
  <rect fill="none" id="canvas_background" height="342" width="382" y="-1" x="-1"/>
 </g>
 <g>
  <title>Layer 1</title>
  <g id="svg_1">
   <path id="svg_2" d="m239.04987,103.99303l11.1,0l31.7,-31.7l1.6,-13.5c-59,-52.1 -149.2,-46.5 -201.3,12.5c-14.5,16.4 -25,35.9 -30.7,57c3.5,-1.4 7.5,-1.7 11.1,-0.7l63.5,-10.5c0,0 3.2,-5.3 4.9,-5c28.2,-31 75.7,-34.6 108.3,-8.2l-0.2,0.1z" class="st0"/>
   <path id="svg_3" d="m327.14987,128.39303c-7.3,-26.9 -22.3,-51 -43.1,-69.5l-44.5,44.5c18.8,15.4 29.5,38.5 29.1,62.8l0,7.9c21.9,0 39.6,17.7 39.6,39.6c0,21.9 -17.7,39.6 -39.6,39.6l-79.3,0l-7.9,8l0,47.7l7.9,7.9l79.3,0c56.9,0.4 103.4,-45.3 103.9,-102.3c0.2,-34.5 -16.8,-66.9 -45.4,-86.2z" class="st1"/>
   <path id="svg_4" d="m109.94987,316.39303l79.3,0l0,-63.4l-79.3,0c-5.6,0 -11.2,-1.2 -16.4,-3.6l-11.1,3.5l-32,31.7l-2.8,11.1c18,13.5 39.8,20.8 62.3,20.7z" class="st2"/>
   <path id="svg_5" d="m109.94987,110.59303c-56.9,0.3 -102.8,46.8 -102.5,103.7c0.2,31.8 15,61.7 40.2,81.1l46,-46c-19.9,-9 -28.8,-32.5 -19.8,-52.4c9,-19.9 32.5,-28.8 52.4,-19.8c8.8,4 15.8,11 19.8,19.8l46,-46c-19.5,-25.6 -49.9,-40.5 -82.1,-40.4z" class="st3"/>
  </g>
 </g>
</svg>