<svg width="402" height="452" xmlns="http://www.w3.org/2000/svg">
 <style type="text/css">.st0{fill:#575759;}
	.st1{fill:#878787;}
	.st2{fill:#EBEBEB;}
	.st3{fill:#FFFFFF;}</style>

 <title>HTML5 Logo</title>
 <g>
  <title>background</title>
  <rect fill="none" id="canvas_background" height="454" width="404" y="-1" x="-1"/>
 </g>
 <g>
  <title>Layer 1</title>
  <g id="svg_11">
   <polygon id="svg_1" points="52.600006103515625,390.59999084472656 19.600006103515625,20.29998779296875 382.3999938964844,20.29998779296875 349.29998779296875,390.49998474121094 200.80001831054688,431.6999969482422 " class="st0"/>
   <polygon id="svg_2" points="201,400.1999969482422 321,366.90000915527344 349.29998779296875,50.59998321533203 201,50.59998321533203 " class="st1"/>
   <polygon id="svg_3" points="201,187.90000915527344 140.89999389648438,187.90000915527344 136.8000030517578,141.39999389648438 201,141.39999389648438 201,95.99999237060547 200.8000030517578,95.99999237060547 87.10000610351562,95.99999237060547 88.19999694824219,108.19998931884766 99.39999389648438,233.3000030517578 201,233.3000030517578 " class="st2"/>
   <polygon id="svg_4" points="201,305.90000915527344 200.8000030517578,305.90000915527344 150.1999969482422,292.1999969482422 147,255.99998474121094 122.39999389648438,255.99998474121094 101.39999389648438,255.99998474121094 107.80000305175781,327.3000030517578 200.8000030517578,353.1999969482422 201,353.09999084472656 " class="st2"/>
   <polygon id="svg_9" points="200.8000030517578,187.90000915527344 200.8000030517578,233.3000030517578 256.79998779296875,233.3000030517578 251.5,292.1999969482422 200.8000030517578,305.90000915527344 200.8000030517578,353.09999084472656 293.8999938964844,327.3000030517578 294.6000061035156,319.6999969482422 305.29998779296875,200.09999084472656 306.3999938964844,187.90000915527344 294.20001220703125,187.90000915527344 " class="st3"/>
   <polygon id="svg_10" points="200.8000030517578,95.99999237060547 200.8000030517578,124.19998931884766 200.8000030517578,141.3000030517578 200.8000030517578,141.39999389648438 310.3999938964844,141.39999389648438 310.3999938964844,141.39999389648438 310.5,141.39999389648438 311.3999938964844,131.1999969482422 313.5,108.19998931884766 314.6000061035156,95.99999237060547 " class="st3"/>
  </g>
 </g>
</svg>