<svg width="108" height="108" xmlns="http://www.w3.org/2000/svg">
 <style type="text/css">.st0{fill:#575759;}
	.st1{fill:#FFFFFF;}</style>

 <g>
  <title>background</title>
  <rect fill="none" id="canvas_background" height="110" width="110" y="-1" x="-1"/>
 </g>
 <g>
  <title>Layer 1</title>
  <path id="svg_1" d="m54,4c-27.6,0 -50,22.4 -50,50s22.4,50 50,50s50,-22.4 50,-50s-22.4,-50 -50,-50z" class="st0"/>
  <g id="svg_2">
   <path id="svg_3" d="m53.85,85.95c-0.9,0 -1.7,-0.2 -2.5,-0.7l-7.8,-4.6c-1.2,-0.7 -0.6,-0.9 -0.2,-1c1.6,-0.6 1.9,-0.7 3.5,-1.6c0.2,-0.1 0.4,-0.1 0.6,0.1l6,3.6c0.2,0.1 0.5,0.1 0.7,0l23.4,-13.5c0.2,-0.1 0.4,-0.4 0.4,-0.6l0,-27c0,-0.3 -0.1,-0.5 -0.4,-0.6l-23.3,-13.6c-0.2,-0.1 -0.5,-0.1 -0.7,0l-23.4,13.4c-0.2,0.1 -0.4,0.4 -0.4,0.6l0,27c0,0.2 0.1,0.5 0.4,0.6l6.4,3.7c3.5,1.7 5.6,-0.3 5.6,-2.4l0,-26.5c0,-0.4 0.3,-0.7 0.7,-0.7l3,0c0.4,0 0.7,0.3 0.7,0.7l0,26.6c0,4.7 -2.5,7.3 -6.9,7.3c-1.4,0 -2.4,0 -5.4,-1.5l-6.1,-3.5c-1.5,-0.9 -2.5,-2.5 -2.5,-4.3l0,-27c0,-1.7 0.9,-3.4 2.5,-4.3l23.4,-13.5c1.5,-0.8 3.5,-0.8 4.9,0l23.4,13.5c1.5,0.9 2.5,2.5 2.5,4.3l0,27c0,1.7 -0.9,3.4 -2.5,4.3l-23.5,13.6c-0.8,0.4 -1.6,0.6 -2.5,0.6z" class="st1"/>
   <path id="svg_4" d="m61.15,67.35c-10.2,0 -12.4,-4.7 -12.4,-8.6c0,-0.4 0.3,-0.7 0.7,-0.7l3,0c0.3,0 0.6,0.2 0.7,0.6c0.4,3.1 1.8,4.6 8,4.6c4.9,0 7,-1.1 7,-3.7c0,-1.5 -0.6,-2.6 -8.3,-3.4c-6.4,-0.6 -10.4,-2 -10.4,-7.2c0,-4.7 4,-7.5 10.7,-7.5c7.5,0 11.2,2.6 11.7,8.2c0,0.2 -0.1,0.4 -0.2,0.5c-0.1,0.1 -0.3,0.2 -0.5,0.2l-3,0c-0.3,0 -0.6,-0.2 -0.7,-0.5c-0.7,-3.2 -2.5,-4.3 -7.3,-4.3c-5.4,0 -6,1.9 -6,3.3c0,1.7 0.7,2.2 8,3.2c7.2,0.9 10.6,2.3 10.6,7.3c0,5.1 -4.2,8 -11.6,8z" class="st1"/>
  </g>
 </g>
</svg>