<svg width="999.9999999999999" height="666" xmlns="http://www.w3.org/2000/svg">
 <style type="text/css">.st0{fill:#575759;}</style>

 <g>
  <title>background</title>
  <rect fill="none" id="canvas_background" height="668" width="1002" y="-1" x="-1"/>
 </g>
 <g>
  <title>Layer 1</title>
  <g id="svg_1">
   <path id="svg_2" d="m307.6,258.09996l-51.6,0l-21.2,109.1l48.2,0c0,0 58.7,1.5 61.4,-70.7c2.8,-41.5 -36.8,-38.4 -36.8,-38.4z" class="st0"/>
   <path id="svg_3" d="m748.1,258.09996l-51.6,0l-21.2,109.1l48.2,0c0,0 58.7,1.5 61.4,-70.7c2.9,-41.5 -36.8,-38.4 -36.8,-38.4z" class="st0"/>
   <path id="svg_4" d="m500,74.89996c-270.6,0 -490,115.6 -490,258.1s219.4,258.1 490,258.1s490,-115.5 490,-258.1c0,-142.5 -219.4,-258.1 -490,-258.1zm-219.4,332.8l-52.2,-0.4l-14.7,68.6l-55.9,0l50.4,-258.1c0,0 71.6,0.9 118.6,0s93.2,32.3 71.6,107.5c-26,89.8 -117.8,82.4 -117.8,82.4zm251.3,0c0,0 13.4,-60 19.3,-101.6c2.4,-17.1 13,-46.2 -15,-46.2c-23.4,-0.1 -58.4,-0.2 -58.4,-0.2l-29.5,148.1l-55.3,0l51.6,-259.3l56.6,0l-14.2,69.3l58.4,0c0,0 77.4,-6.1 68.2,57.8s-26.4,132.1 -26.4,132.1l-55.3,0l0,0zm306.9,-82.3c-25.8,89.7 -117.7,82.3 -117.7,82.3l-52.2,-0.4l-14.7,68.6l-55.9,0l50.4,-258.1c0,0 71.6,0.9 118.6,0c46.9,-0.9 93.1,32.3 71.5,107.6z" class="st0"/>
  </g>
 </g>
</svg>